<?xml version="1.0" standalone="no"?>
<!DOCTYPE svg PUBLIC "-//W3C//DTD SVG 20010904//EN"
 "http://www.w3.org/TR/2001/REC-SVG-20010904/DTD/svg10.dtd">
<svg version="1.0" xmlns="http://www.w3.org/2000/svg"
 width="250.000000pt" height="250.000000pt" viewBox="0 0 250.000000 250.000000"
 preserveAspectRatio="xMidYMid meet">
<g transform="translate(0.000000,250.000000) scale(0.100000,-0.100000)"
fill="#fff" stroke="none">
<path d="M80 2482 c-19 -9 -45 -32 -57 -51 l-23 -34 0 -1146 c0 -1126 0 -1147
20 -1179 11 -18 34 -41 52 -52 32 -19 52 -20 646 -20 l612 0 0 485 0 485 -160
0 -160 0 0 190 0 190 159 0 158 0 6 193 c5 199 15 255 57 342 50 103 158 186
285 220 62 16 298 21 389 9 l46 -7 0 -167 0 -167 -137 -5 c-226 -7 -236 -19
-241 -255 l-4 -163 186 0 c171 0 186 -1 185 -17 0 -10 -10 -94 -22 -188 l-23
-170 -162 -3 -162 -2 0 -485 0 -485 333 0 c314 0 334 1 365 20 18 11 41 34 52
52 20 32 20 53 20 1178 0 1125 0 1146 -20 1178 -11 18 -34 41 -52 52 -32 20
-53 20 -1173 20 -1065 0 -1142 -1 -1175 -18z"/>
</g>
</svg>
